<svg xmlns="http://www.w3.org/2000/svg"  viewBox="0 0 100 100" width="50px" height="50px"><path fill="#cee1f4" d="M50,13c-20.435,0-37,16.565-37,37s16.565,37,37,37s37-16.565,37-37S70.435,13,50,13z"/><path fill="#e1e0d8" d="M49.521,64.096L51.662,62c0,0,4.636-0.298,7.088-2.596l11.037-11.043l2.553-2.447l1.765,1.713 l-10.85,11.117c0,0-4.284,4.495-8.036,5.195C55.219,63.939,51.628,64.862,49.521,64.096z"/><path fill="#e1e0d8" d="M37.244,51.519c0,0-1.717-6.931,4.841-12.919L54,27.304L55.586,29l-12.16,12.612 c0,0-3.883,2.59-3.426,7.375L37.244,51.519z"/><polygon fill="#836f61" points="44.574,36.266 48.644,40.5 51.662,37.622 47.436,33.436"/><polygon fill="#836f61" points="61.314,52.128 63.713,49.926 67.681,54 65.431,56.229"/><polygon fill="#cbc9bc" points="49,40.798 52.809,37.399 64,48.5 60.229,52"/><path fill="#e1e0d8" d="M53.223,36.809c0,0,8.904-10.755,12.989-9.223c0,0,5.745,0.106,7.309,5.415 c0,0,2.979,4.128-3.521,10l-5.505,5.362L53.223,36.809z"/><polygon fill="#fbcd59" points="34,54.5 48.691,41 60.229,52.5 45.436,67"/><polygon fill="#e0a825" points="44.71,61.583 56.82,49.478 59.782,52.351 45.532,67"/><polygon fill="#fde751" points="34.457,55 48.794,41.102 51.662,44.05 39.416,56.287 35.934,56"/><path fill="#fbb97f" d="M30,72.287l15-5v-5c0,0-4-1-6-6l-5-1L30,72.287z"/><path fill="#78a0cf" d="M13,27c-1.105,0-2,0.895-2,2s0.895,2,2,2s2-0.895,2-2S14.105,27,13,27z"/><path fill="#f1bc19" d="M77,12c-0.552,0-1,0.448-1,1s0.448,1,1,1s1-0.448,1-1S77.552,12,77,12z"/><path fill="#f1bc19" d="M83,11c-2.209,0-4,1.791-4,4s1.791,4,4,4s4-1.791,4-4S85.209,11,83,11z"/><path fill="#78a0cf" d="M87,22c-1.105,0-2,0.895-2,2s0.895,2,2,2s2-0.895,2-2S88.105,22,87,22z"/><path fill="#fbcd59" d="M81,74c-1.105,0-2,0.895-2,2s0.895,2,2,2s2-0.895,2-2S82.105,74,81,74z M15,59 c-2.209,0-4,1.791-4,4c0,2.209,1.791,4,4,4s4-1.791,4-4C19,60.791,17.209,59,15,59z"/><path fill="#78a0cf" d="M25,85c-1.105,0-2,0.895-2,2s0.895,2,2,2s2-0.895,2-2S26.105,85,25,85z"/><path fill="#fff" d="M18.5,51c-1.381,0-2.5,1.119-2.5,2.5s1.119,2.5,2.5,2.5s2.5-1.119,2.5-2.5S19.881,51,18.5,51z"/><path fill="#f1bc19" d="M21,66c-0.552,0-1,0.448-1,1s0.448,1,1,1s1-0.448,1-1S21.552,66,21,66z"/><path fill="#fff" d="M80,33c-0.552,0-1,0.448-1,1s0.448,1,1,1s1-0.448,1-1S80.552,33,80,33z"/><circle cx="64" cy="37" r="2" fill="#472b29"/><circle cx="68" cy="33" r="2" fill="#472b29"/><path fill="#472b29" d="M73.561,45.854c-0.584-0.584-1.537-0.584-2.121,0L66,51.293l-1.646-1.646 c-0.002-0.002-0.004-0.002-0.006-0.004l7.852-7.852c3.469-3.469,3.469-9.113,0-12.582c-3.417-3.414-9.013-3.458-12.48-0.099 l-8.077,7.824L50.207,35.5l5.439-5.439c0.283-0.283,0.439-0.66,0.439-1.061s-0.156-0.777-0.439-1.061l-0.601-0.601 c-0.573-0.574-1.514-0.582-2.099-0.023L40.996,38.758c-3.482,3.334-5.163,8.13-4.555,12.902l-2.929,2.837 c-0.089,0.087-0.154,0.195-0.188,0.315l-4.486,16.15c-0.17,0.612,0.013,1.263,0.478,1.696c0.32,0.301,0.735,0.46,1.159,0.46 c0.19,0,0.382-0.032,0.568-0.098l15.189-5.361c0.099-0.035,0.188-0.091,0.262-0.165l2.751-2.751c0.743,0.11,1.489,0.17,2.231,0.17 c4.001,0,7.898-1.582,10.763-4.446l11.907-11.907c0.585-0.585,0.585-1.536,0-2.121L73.561,45.854z M55.086,35.548 C55.325,36.385,56.087,37,57,37c1.105,0,2-0.895,2-2c0-0.891-0.586-1.637-1.391-1.896l2.514-2.436C60.399,31.443,61.131,32,62,32 c1.105,0,2-0.895,2-2c0-0.608-0.277-1.146-0.706-1.513c2.666-0.982,5.791-0.411,7.914,1.712c2.184,2.184,2.734,5.39,1.655,8.091 C72.577,37.537,71.854,37,71,37c-1.105,0-2,0.895-2,2c0,1.105,0.895,2,2,2c0.004,0,0.007-0.001,0.011-0.001l-3.012,3.012 C67.999,44.007,68,44.004,68,44c0-1.105-0.895-2-2-2s-2,0.895-2,2c0,1.105,0.895,2,2,2c0.004,0,0.007-0.001,0.011-0.001 L64.5,47.51l-4.511-4.511C59.993,42.999,59.996,43,60,43c1.105,0,2-0.895,2-2c0-1.105-0.895-2-2-2s-2,0.895-2,2 c0,0.004,0.001,0.007,0.001,0.011l-4.209-4.209L55.086,35.548z M52.786,37.776L63.51,48.5l-3.011,3.011 c-0.002-0.002-0.002-0.004-0.004-0.006L49.728,40.738L52.786,37.776z M61.142,52.849l1.651,1.651l-4.075,4.075 c-1.632,1.632-3.783,2.585-6.048,2.746L61.142,52.849z M48.594,39.887l-3.511-3.511l2.293-2.293l3.548,3.548L48.594,39.887z M47.876,40.583l-7.597,7.359c0.319-1.945,1.225-3.739,2.646-5.16l3.575-3.575L47.876,40.583z M53.639,28.038 c0.194-0.187,0.51-0.183,0.7,0.008l0.601,0.601c0.195,0.195,0.195,0.512,0,0.707L49.5,34.793l-1.427-1.427L53.639,28.038z M41.688,39.48l2.598-2.488l1.507,1.507l-3.575,3.575c-1.869,1.869-2.934,4.322-3.052,6.945l-1.794,1.738 C37.07,46.56,38.624,42.414,41.688,39.48z M35.851,69.84c-0.86-3.334-2.882-4.135-4.051-4.304l2.674-9.628 c0.789,0.409,2.16,0.857,4.232,0.633c0.594,1.185,2.751,5.083,5.754,5.859c-0.079,1.006-0.141,3.043,0.482,4.231L35.851,69.84z M45.832,66.178c-0.413-0.753-0.483-2.558-0.349-3.954l3.87-3.87c0.195-0.195,0.195-0.512,0-0.707s-0.512-0.195-0.707,0 l-3.805,3.805c-2.628-0.568-4.683-4.261-5.235-5.35l6.747-6.747c0.195-0.195,0.195-0.512,0-0.707s-0.512-0.195-0.707,0 l-6.872,6.872c-1.923,0.244-3.154-0.136-3.815-0.474l13.763-13.332l1.929,1.929l-3.005,3.005c-0.195,0.195-0.195,0.512,0,0.707 C47.744,47.451,47.872,47.5,48,47.5s0.256-0.049,0.354-0.146l3.005-3.005l5.294,5.294c-0.002,0.002-0.004,0.002-0.006,0.004l-6,6 c-0.195,0.195-0.195,0.512,0,0.707C50.744,56.451,50.872,56.5,51,56.5s0.256-0.049,0.354-0.146l6-6 c0.002-0.002,0.002-0.004,0.004-0.006l2.147,2.147c0.002,0.002,0.004,0.002,0.006,0.004L45.832,66.178z M61.532,59.761 c-2.989,2.989-7.177,4.458-11.37,4.067l1.484-1.484c0.119,0.004,0.238,0.015,0.356,0.015c2.775,0,5.441-1.096,7.422-3.076 l4.075-4.075l1.293,1.293L61.532,59.761z M65.49,55.783l-3.642-3.642l1.794-1.794c0.002,0.002,0.002,0.004,0.004,0.006 l3.637,3.637L65.49,55.783z M73.439,47.854L68,53.293L66.707,52l5.439-5.439c0.189-0.189,0.518-0.189,0.707,0l0.586,0.586 C73.635,47.342,73.635,47.658,73.439,47.854z"/></svg>